<svg version="1.1" id="Layer_1" xmlns="http://www.w3.org/2000/svg" xmlns:xlink="http://www.w3.org/1999/xlink" x="0px" y="0px"
	 width="100%" viewBox="0 0 752 576" enable-background="new 0 0 752 576" xml:space="preserve">
<path fill="#000000" opacity="1.000000" stroke="none" 
	d="
M541.468628,577.000000 
	C532.257385,575.961060 523.396851,575.505127 514.795837,573.765869 
	C494.930634,569.748901 474.899597,566.640564 455.084534,562.317932 
	C442.093536,559.483948 428.710754,558.788757 415.484039,557.262695 
	C382.483429,553.454956 350.019531,558.853333 317.493896,562.749512 
	C296.830688,565.224731 276.256622,567.992432 255.352188,567.208130 
	C237.448318,566.536377 220.797562,561.546570 204.527496,554.418579 
	C187.187271,546.821777 171.728668,536.199341 156.989777,524.670471 
	C145.054001,515.334229 134.419556,504.327576 124.165451,493.144684 
	C113.975998,482.032318 104.803841,469.992004 94.742165,458.755707 
	C89.133362,452.492096 83.103310,446.395508 76.405571,441.365540 
	C65.836189,433.427887 55.097099,425.725342 43.364544,419.318634 
	C36.923473,415.801422 30.502903,411.782196 24.086956,408.115143 
	C8.073774,398.962769 4.829929,385.093750 7.159405,368.517792 
	C8.458872,359.271118 12.079342,350.690613 17.554169,343.423523 
	C22.076118,337.421204 28.293324,332.548401 35.979916,330.469635 
	C38.837215,329.696930 40.613991,328.025696 41.465530,325.243134 
	C47.054024,306.981628 52.349167,288.632385 55.373474,269.746613 
	C56.315491,263.864014 57.001133,257.893494 56.910763,251.857132 
	C56.761463,241.884354 51.803875,234.576340 44.583824,228.413849 
	C38.918015,223.577942 32.954906,219.109940 28.259399,213.180084 
	C25.994408,210.319702 24.910892,207.065186 23.711111,203.822083 
	C19.254293,191.774872 15.045477,179.722397 17.865303,166.456253 
	C22.251986,145.818710 26.542042,125.331841 37.193733,106.551239 
	C45.490982,91.921890 55.628670,78.826492 67.102394,66.902267 
	C77.736473,55.850647 89.154945,45.546837 102.059464,36.788181 
	C118.175842,25.849546 135.193527,17.605930 153.809814,11.997251 
	C180.425217,3.978611 207.509293,3.789083 234.821991,5.474512 
	C244.631165,6.079823 254.362366,7.270719 263.929871,9.551815 
	C281.218018,13.673681 298.150360,19.159191 314.257355,26.500355 
	C332.336609,34.740402 350.170288,43.466156 368.767090,50.556126 
	C384.447601,56.534286 400.516388,61.093624 416.679626,65.518631 
	C433.716675,70.182861 451.199310,71.824150 468.472778,74.875496 
	C491.751740,78.987724 515.119385,78.254044 538.475769,79.053566 
	C556.792847,79.680580 575.238770,79.817368 593.209961,83.221230 
	C609.569519,86.319855 625.881836,90.072678 641.768372,95.550766 
	C655.725220,100.363449 668.677185,107.108429 680.710693,115.200653 
	C688.204834,120.240204 695.011780,126.680801 701.483337,133.410629 
	C713.544739,145.953339 722.320190,160.424423 729.475281,175.928726 
	C735.031555,187.968796 739.445435,200.517914 742.872681,213.415436 
	C744.908447,221.076080 747.913147,228.459213 748.906433,236.422867 
	C750.585022,249.881409 745.588928,260.209412 735.111816,268.548065 
	C730.379700,272.314423 725.458740,275.515533 720.006714,278.029053 
	C716.802917,279.506073 716.305237,282.749390 716.036926,285.638641 
	C714.915588,297.715576 711.081299,309.120514 706.779053,320.237885 
	C700.924622,335.366058 692.037964,348.800690 680.427429,360.272095 
	C677.673279,362.993225 674.228271,364.523499 670.388367,363.077087 
	C666.207336,361.502258 665.636475,357.345856 664.818787,353.653503 
	C662.599854,343.634216 660.560120,333.575287 658.424622,323.537292 
	C658.290771,322.908203 657.944275,322.324341 657.632751,321.563171 
	C655.527405,324.041443 654.470520,326.740570 653.616699,329.647400 
	C647.978455,348.842102 635.913696,364.038849 622.714661,378.434326 
	C619.533752,381.903564 614.964355,383.691803 610.386536,381.675323 
	C605.437622,379.495300 604.007385,374.570404 603.954407,369.595459 
	C603.840210,358.867767 602.052612,348.405182 599.687195,338.003876 
	C599.398071,336.732544 598.961914,335.494629 598.182495,332.839844 
	C595.832764,339.233734 594.326050,344.580139 591.966431,349.519073 
	C585.110779,363.868561 575.995544,376.561737 563.241638,386.349487 
	C559.119324,389.513000 555.342468,388.706299 552.343018,384.251038 
	C547.236694,376.666473 546.574463,367.756378 544.828064,359.177612 
	C543.609253,353.190460 542.561218,347.168549 541.473083,341.355652 
	C539.302612,340.776367 538.984497,342.199249 538.570007,343.146088 
	C532.932861,356.023529 525.475830,367.618744 515.621338,377.761444 
	C512.578552,380.893219 509.717865,382.335358 505.570160,381.430908 
	C501.409607,380.523621 499.380157,377.347656 498.678802,373.736206 
	C497.637299,368.373169 497.361511,362.860138 496.786438,357.408173 
	C496.091064,350.815582 495.423553,344.220032 494.678284,336.988556 
	C491.953156,338.958771 490.826691,341.296967 489.483337,343.520660 
	C483.717072,353.065704 476.200195,360.891724 466.079834,365.787018 
	C459.018707,369.202545 453.926392,366.255341 451.727356,358.775726 
	C448.863617,349.035217 449.017944,338.713837 445.629517,329.109497 
	C445.146545,327.740601 445.179047,326.124481 443.173218,324.779510 
	C440.266968,329.059692 437.461090,333.422821 434.005615,337.301117 
	C428.122101,343.904694 421.795013,350.016113 414.232239,354.546356 
	C406.683472,359.068207 399.628021,354.508240 398.767517,344.978516 
	C398.124359,337.855652 397.454468,330.742401 395.976685,323.726227 
	C394.703186,317.680115 391.660522,312.269531 389.890381,306.399261 
	C389.110626,303.813324 387.211304,302.420532 384.374878,302.066010 
	C370.921783,300.384583 357.395721,300.205780 344.009308,301.840820 
	C328.930511,303.682526 314.976044,309.548615 301.250702,315.908936 
	C291.780304,320.297485 282.384491,324.800476 273.107941,329.596802 
	C265.991730,333.276123 258.194641,335.252594 250.178940,336.153320 
	C249.100662,336.274506 247.774612,335.886108 247.085602,337.191589 
	C247.177322,338.605682 248.319748,338.646332 249.236938,338.838348 
	C260.405670,341.176544 270.780609,345.996918 281.018188,350.573669 
	C294.260468,356.493652 307.517456,362.548126 320.160095,369.909760 
	C328.131897,374.551605 336.492340,378.705322 344.557556,383.265594 
	C355.049011,389.197723 365.088379,395.925903 375.536530,401.939362 
	C381.419434,405.325287 387.487732,408.390289 393.253784,412.001221 
	C395.068451,413.137634 397.151855,413.157806 398.783783,411.481720 
	C404.560364,405.548737 410.472626,399.754028 415.405365,393.033630 
	C418.138031,389.310638 421.220581,385.877930 423.674103,381.902435 
	C425.750549,378.537903 429.516907,377.255646 433.270508,377.827393 
	C437.404205,378.457031 439.717529,381.614532 441.040680,385.499756 
	C444.696075,396.232758 447.327881,407.206940 448.970856,418.423767 
	C449.134094,419.538330 449.477661,420.626465 449.718475,421.646179 
	C451.992798,422.250214 452.610809,420.612640 453.294006,419.403625 
	C458.355225,410.447327 463.968262,401.843414 469.653259,393.277252 
	C472.617737,388.810364 478.881195,387.627228 482.474976,391.405975 
	C484.619720,393.661133 486.735229,396.178375 487.565521,399.312836 
	C490.960754,412.130035 496.947540,424.210724 498.423859,437.579712 
	C498.559753,438.810669 499.298187,439.975098 499.893127,441.525513 
	C504.416229,438.133972 506.608368,433.336365 509.983521,429.575195 
	C513.700378,425.433228 516.496033,420.433044 519.476685,415.671326 
	C522.221985,411.285706 525.868225,409.239197 531.125671,409.616608 
	C536.199036,409.980804 537.240967,413.796753 539.054810,417.426575 
	C544.248535,427.820190 547.052551,438.819458 548.310059,450.292053 
	C548.373535,450.871185 548.857300,451.404236 549.505310,452.651550 
	C554.057251,446.581207 558.435913,441.054260 562.455383,435.277435 
	C565.373779,431.083099 568.308716,426.896362 570.853088,422.413757 
	C572.959595,418.702667 576.998291,417.401306 581.264343,417.850464 
	C585.229126,418.267914 587.058777,421.174194 588.644409,424.500793 
	C592.537415,432.668457 593.103760,441.481659 594.031616,450.242737 
	C594.183838,451.680237 593.669189,453.234406 595.130249,455.074738 
	C601.718750,449.341370 606.646240,442.374634 611.024963,435.079163 
	C613.231262,431.403107 616.156128,428.239594 617.904053,424.190613 
	C619.318298,420.914337 622.971191,420.512207 626.196533,421.008423 
	C629.497559,421.516235 632.670959,422.495941 633.894958,426.380798 
	C636.824768,435.679779 641.689270,444.392517 642.317200,454.391205 
	C642.343811,454.814819 642.773071,455.213135 643.142639,455.840149 
	C645.279175,454.680756 646.965393,453.266632 648.277283,451.289490 
	C654.043457,442.599030 659.811096,433.908325 665.697815,425.299530 
	C669.323792,419.996918 678.228455,420.366699 681.244446,426.154877 
	C687.871216,438.872559 693.387268,451.977661 694.667419,466.551422 
	C695.023804,470.608795 697.243774,474.482941 696.604126,478.735992 
	C694.680420,491.527374 692.359619,504.102203 686.783752,516.068176 
	C680.401611,529.764526 671.598816,541.387939 660.462097,551.331421 
	C651.395813,559.426453 641.329285,565.760498 629.635620,569.828857 
	C621.095398,572.800110 612.578186,575.322571 603.331177,576.801025 
	C582.645752,577.000000 562.291565,577.000000 541.468628,577.000000 
M327.885223,53.870728 
	C322.239716,49.879467 315.409332,48.491245 309.344421,45.452572 
	C292.829926,37.178452 275.311432,31.727627 257.539459,27.098839 
	C250.164352,25.177956 242.486786,24.594503 234.841934,24.013075 
	C214.361435,22.455433 193.909119,22.211199 173.643372,25.886948 
	C158.929398,28.555727 144.802902,33.354305 131.520706,40.302326 
	C125.501602,43.450958 119.294418,46.572475 114.043777,50.790745 
	C101.905853,60.542126 90.144203,70.740097 79.313728,82.031433 
	C70.289268,91.439903 62.344509,101.463486 55.925388,112.811989 
	C47.775494,127.220360 41.464821,142.210968 38.552544,158.630798 
	C37.129463,166.654297 35.262806,174.611084 36.477905,182.749176 
	C38.732571,197.849808 48.408070,208.229080 59.750313,217.173065 
	C64.997467,221.310715 68.713600,226.474564 71.608742,232.157120 
	C77.406631,243.537094 75.829735,255.797119 74.823112,267.906097 
	C73.463356,284.263184 67.329712,299.549255 64.066376,315.483856 
	C63.342690,319.017578 63.022423,322.703644 61.096706,325.996277 
	C59.099392,329.411346 60.121170,331.679871 64.262665,332.245056 
	C70.906593,333.151764 77.560539,333.082794 84.195129,332.341156 
	C100.529709,330.515289 116.886246,328.629120 133.225235,327.159393 
	C154.912674,325.208588 176.813629,325.762512 198.597443,324.712830 
	C217.497360,323.802155 236.484070,323.078888 254.561478,316.291046 
	C257.977173,315.008514 261.579071,314.142334 264.816742,312.432373 
	C278.128082,305.402008 291.993958,299.571442 305.688110,293.368225 
	C311.323364,290.815552 317.419678,289.611877 323.167450,287.472351 
	C337.319855,282.204254 351.995789,281.514282 366.816589,281.536102 
	C383.630127,281.560883 399.585266,286.561646 415.869293,289.769440 
	C438.877747,294.301971 462.085175,297.785980 485.612122,297.676361 
	C510.561462,297.560150 535.478455,297.145172 560.344971,294.098450 
	C582.911194,291.333618 605.776001,291.049316 628.039429,285.732361 
	C639.974915,282.881927 652.149170,281.403015 664.118652,278.363190 
	C680.968262,274.084045 697.444214,269.184753 712.617554,260.815155 
	C729.121216,251.711761 733.812378,246.638474 728.723755,230.638901 
	C728.176819,228.919357 727.134155,227.333054 726.748718,225.590439 
	C722.745056,207.487808 716.404785,190.238220 707.794678,173.841629 
	C702.084534,162.967789 695.068359,153.073776 686.323303,144.296524 
	C682.794434,140.754623 679.048340,137.651199 675.265808,134.457993 
	C669.142944,129.289154 662.427429,125.025360 655.346252,121.561943 
	C645.969238,116.975639 635.908508,113.898514 626.167908,110.162018 
	C611.846069,104.668152 596.827087,103.185585 582.094543,100.660271 
	C562.432251,97.289955 542.274841,98.177979 522.328308,97.247215 
	C501.798279,96.289223 481.226898,96.640846 460.838928,92.577972 
	C445.270264,89.475479 429.507843,87.568169 413.958313,83.933960 
	C398.030212,80.211288 382.560791,75.281395 367.225220,69.915588 
	C354.113129,65.327751 341.456055,59.439465 327.885223,53.870728 
M265.970917,364.530579 
	C262.798126,363.525024 259.454895,362.874939 256.483276,361.449890 
	C245.882553,356.366302 234.328995,354.160126 223.115540,351.636139 
	C200.821854,346.618073 177.964142,345.536163 155.087036,346.060974 
	C146.099335,346.267151 137.108902,345.885315 128.122879,346.727509 
	C110.887497,348.342834 93.771133,351.109497 76.466164,352.029053 
	C68.745872,352.439362 61.144684,351.762665 53.825172,349.147461 
	C44.948353,345.975800 38.256634,347.814484 32.650288,355.406403 
	C27.112276,362.905823 24.265514,371.319275 25.564487,380.686646 
	C26.774290,389.410950 34.487186,392.091705 40.779488,395.801636 
	C53.163139,403.102966 65.738655,410.040985 77.425636,418.507080 
	C86.573181,425.133667 95.157135,432.457031 103.233475,440.216522 
	C108.398537,445.178986 113.027580,450.921722 117.729439,456.463104 
	C125.018097,465.053223 132.289917,473.666809 139.860519,482.005646 
	C145.946335,488.709076 152.075653,495.467224 158.889801,501.391144 
	C167.249023,508.658173 175.990295,515.483398 185.048691,521.973022 
	C196.659042,530.290955 209.193069,536.703247 222.371964,541.368896 
	C238.505096,547.080322 255.363174,550.019836 272.791962,548.956543 
	C278.795319,548.590393 284.464081,546.924255 290.421417,546.393311 
	C315.197754,544.185059 339.861176,540.681335 364.645569,538.599915 
	C390.012939,536.469666 415.413239,536.996155 440.627838,541.226990 
	C455.494171,543.721497 470.339111,546.243103 485.145996,549.149841 
	C503.955994,552.842346 522.850342,556.788513 542.090759,558.075500 
	C566.282104,559.693726 590.367371,561.565674 614.330811,554.871765 
	C629.327515,550.682556 642.208679,543.577698 653.206055,532.829102 
	C662.271667,523.968628 667.961548,512.844482 672.924561,501.425934 
	C674.682251,497.382141 676.880310,492.926514 675.052612,487.669403 
	C671.806519,487.873474 668.679871,488.080048 665.551819,488.264923 
	C655.911621,488.834717 646.268738,489.909210 636.630920,489.866364 
	C605.502686,489.728088 574.466370,488.895020 543.644836,483.206665 
	C518.885559,478.637146 494.454681,473.297943 470.537659,465.314484 
	C450.359497,458.579041 430.580505,451.081116 411.452942,441.726624 
	C395.229858,433.792603 379.285431,425.437164 363.774658,416.166748 
	C348.264465,406.896606 332.299744,398.390442 316.624268,389.392578 
	C300.500519,380.137329 284.132507,371.408264 265.970917,364.530579 
M555.456543,322.108887 
	C558.894592,333.614929 561.554871,345.322662 563.751587,356.994446 
	C566.105713,356.932953 566.719177,355.638794 567.395935,354.545349 
	C574.768311,342.634369 579.754395,329.768982 583.122009,316.185425 
	C584.273804,311.539856 582.405334,310.948853 578.627869,311.444611 
	C572.903748,312.195892 567.215149,313.183411 561.517456,314.043854 
	C554.503784,315.103058 554.428894,314.607330 555.456543,322.108887 
M622.765076,306.344818 
	C618.542542,307.625824 613.828491,306.725281 609.054199,309.427307 
	C614.880981,322.214783 619.301697,335.362488 621.591125,349.256805 
	C631.476624,335.959442 637.126587,321.362488 641.413635,306.211121 
	C642.414795,302.672699 639.088379,302.782166 637.254883,303.592010 
	C632.862610,305.532104 628.189514,305.462067 622.765076,306.344818 
M693.871582,290.226929 
	C685.525024,292.699066 676.552856,293.261475 668.287476,298.539246 
	C673.729309,308.537506 676.728027,319.324738 679.472534,331.145203 
	C688.380249,318.742310 691.782288,305.742035 695.990601,293.084595 
	C696.451904,291.696991 697.334534,289.977356 693.871582,290.226929 
M526.116577,324.639862 
	C527.153748,322.251465 528.574524,319.969879 528.258057,316.480316 
	C521.661804,316.233398 515.138306,315.635162 508.416687,316.845459 
	C511.591095,326.733948 512.164368,336.543732 515.728943,346.590973 
	C519.356689,338.925690 522.575562,332.124420 526.116577,324.639862 
M466.098663,444.465424 
	C471.046082,445.527039 475.680023,447.904907 481.424500,448.371246 
	C479.105743,439.196075 478.371735,430.170776 474.927429,420.516052 
	C469.526672,428.111664 463.998474,434.151642 460.362762,441.641785 
	C461.814880,443.322479 463.715454,443.526123 466.098663,444.465424 
M480.151917,316.175873 
	C474.404358,316.137604 468.638824,315.683044 462.294464,316.449280 
	C464.078949,324.533539 465.123138,332.173920 469.048492,339.889771 
	C472.112854,335.718323 474.928406,332.781342 476.653290,329.303436 
	C478.663361,325.250671 481.997986,321.430664 480.151917,316.175873 
M530.875916,457.075317 
	C529.652039,451.345795 528.428162,445.616241 527.204285,439.886719 
	C526.736450,439.768768 526.268677,439.650787 525.800903,439.532837 
	C521.534180,445.641815 517.043335,451.572266 511.000824,457.821259 
	C518.844421,459.705261 525.174927,461.584381 531.748291,461.668396 
	C532.409241,459.778839 531.341370,458.902710 530.875916,457.075317 
M670.850891,452.015930 
	C667.073669,458.027557 661.423950,462.796082 658.489136,469.795013 
	C661.037842,469.795013 663.004272,469.846619 664.967285,469.786530 
	C676.496826,469.433563 676.575745,469.407013 674.037415,458.065216 
	C673.538940,455.838043 674.446594,452.803375 670.850891,452.015930 
M615.029175,470.680573 
	C618.594910,470.463623 622.246765,471.395813 626.101440,469.943878 
	C625.614685,464.143158 624.402771,458.610992 622.409851,452.787415 
	C618.553467,458.870178 612.137939,462.674377 608.953003,469.222809 
	C610.890808,470.450165 612.554932,470.504303 615.029175,470.680573 
M417.104279,423.696930 
	C421.867340,425.429108 425.415619,429.778687 431.277161,430.099152 
	C430.260651,422.965820 429.550323,415.881042 427.317017,408.475128 
	C423.339844,412.835419 420.527222,417.165649 416.565979,420.461731 
	C415.554993,421.302948 415.278564,422.396271 417.104279,423.696930 
M427.688141,314.318176 
	C428.665100,312.666748 428.513367,311.512665 426.357941,311.155121 
	C421.855713,310.408325 417.358002,309.634369 412.022644,308.729858 
	C413.465851,315.087738 413.954590,321.023834 416.785767,326.492645 
	C422.644257,324.155914 423.530670,318.265076 427.688141,314.318176 
M564.836792,462.279449 
	C563.583740,463.723602 561.705444,464.840332 562.226196,467.627777 
	C567.129517,467.961609 572.004761,468.089600 577.105103,467.518219 
	C576.926758,462.276825 576.193359,457.620117 575.091431,453.057037 
	C572.265625,452.670746 571.317627,454.664795 570.079041,456.119293 
	C568.481079,457.995911 567.778748,460.604523 564.836792,462.279449 
z"/>
<path fill="#000000" opacity="1.000000" stroke="none" 
	d="
M211.632614,244.412689 
	C210.406906,251.928848 206.193665,257.361053 201.112732,261.847351 
	C191.346878,270.470337 179.151093,274.307495 167.074661,278.597443 
	C158.521820,281.635681 149.981125,283.628937 141.035141,284.637848 
	C132.955719,285.549042 124.877594,285.148865 117.327515,282.751678 
	C108.121262,279.828644 102.942604,273.624542 103.201385,262.910217 
	C103.387253,255.214294 106.314796,248.283859 109.644020,241.217896 
	C114.498238,230.915268 120.128487,220.782089 122.548866,209.448059 
	C124.090248,202.230133 121.813477,198.689697 114.528679,196.724960 
	C110.516617,195.642868 106.504814,194.554062 102.467804,193.571365 
	C92.013870,191.026688 86.806847,182.542587 88.581009,171.969467 
	C91.143692,156.697174 97.553467,143.097122 106.903839,131.093735 
	C113.964729,122.029434 121.818649,113.339699 132.579132,108.282158 
	C140.025391,104.782349 147.853607,104.540047 155.362564,107.802261 
	C163.124237,111.174271 170.622650,115.408852 176.403625,121.648575 
	C183.930969,129.773224 190.787735,138.487991 195.693970,148.593521 
	C203.067902,163.781799 207.939728,179.846909 210.413147,196.382477 
	C212.762619,212.089676 215.057938,228.038422 211.632614,244.412689 
M173.589523,147.909378 
	C167.426880,137.167206 158.762634,129.388977 147.006119,125.127739 
	C144.472397,124.209381 142.375870,123.876205 140.068039,125.677231 
	C135.799637,129.008270 131.197037,131.691818 127.292709,135.756882 
	C123.523903,139.680847 120.853439,144.227936 117.899727,148.497208 
	C113.209808,155.275940 109.798218,162.948395 107.458664,170.962402 
	C106.618271,173.841125 107.534309,175.725327 110.729240,176.437820 
	C114.789131,177.343216 118.989555,178.064453 122.763100,179.706741 
	C128.901276,182.378128 135.440018,184.753387 138.631607,191.555161 
	C145.481781,206.153900 139.774597,219.669250 134.445557,232.843185 
	C130.871033,241.679749 126.261551,250.140228 123.032204,259.154907 
	C121.174126,264.341705 122.249596,265.330322 127.879997,265.910614 
	C140.466080,267.207855 152.133102,263.765747 163.942566,260.062042 
	C171.680237,257.635345 178.200974,253.000748 185.585144,250.008438 
	C189.555054,248.399689 192.057495,244.812164 193.094788,240.531479 
	C194.233124,235.833923 195.096176,231.068695 194.574371,226.207962 
	C193.179031,213.210175 192.557037,200.210693 188.831772,187.416763 
	C184.916351,173.969788 181.372696,160.540070 173.589523,147.909378 
z"/>
<path fill="#000000" opacity="1.000000" stroke="none" 
	d="
M376.585815,184.400299 
	C373.528961,200.235321 366.464447,213.902420 355.504608,224.704300 
	C336.931702,243.009552 314.428711,249.396942 289.205261,240.830872 
	C278.068634,237.048782 268.421112,230.325470 260.437286,221.199509 
	C246.015274,204.714355 237.327026,185.770920 231.999878,164.574341 
	C228.538010,150.799637 227.464630,137.161697 230.075562,123.672920 
	C232.706635,110.080208 237.612335,97.230423 248.627060,87.122856 
	C261.096527,75.680382 275.880890,73.021454 291.152618,75.005699 
	C307.689819,77.154366 324.108612,81.861366 338.380676,90.955299 
	C346.458221,96.102196 353.949036,102.253090 360.618958,109.664642 
	C374.585388,125.183952 378.589020,143.797791 379.746826,163.395737 
	C380.147430,170.177475 377.794525,177.121887 376.585815,184.400299 
M329.681610,107.745834 
	C320.028412,103.400093 310.878174,97.769005 300.153625,96.158020 
	C292.788330,95.051643 285.223724,92.349243 278.094391,93.214005 
	C264.032776,94.919617 255.099243,103.811470 251.262100,117.657776 
	C247.544907,131.071213 247.545288,144.494446 250.194092,158.087021 
	C254.258514,178.943832 261.851105,198.095337 278.362305,212.219528 
	C293.273773,224.975235 309.833527,229.751556 328.951202,220.618896 
	C342.568573,214.113800 350.140259,202.856308 355.481781,189.788025 
	C359.344879,180.336655 360.009094,170.148911 359.803864,159.876083 
	C359.479218,143.627502 355.467773,129.292572 342.681030,118.008102 
	C338.685150,114.481667 333.728363,112.262230 329.681610,107.745834 
z"/>
<path fill="#000000" opacity="1.000000" stroke="none" 
	d="
M533.512939,192.915237 
	C529.111328,203.273697 521.730042,210.714874 512.812561,216.250748 
	C504.811401,221.217804 496.025665,224.865540 486.851257,227.516586 
	C469.041962,232.662766 451.046478,235.918945 432.397522,235.303406 
	C419.899261,234.890884 406.649628,227.855087 402.476044,213.635574 
	C398.974976,201.707306 399.944061,189.973541 400.135376,178.114655 
	C400.280273,169.130096 403.047089,160.487122 405.486816,151.908630 
	C410.908325,132.845901 426.808411,123.335930 446.247253,127.544365 
	C459.121307,130.331558 470.726044,136.435837 482.610138,141.917160 
	C490.910919,145.745682 498.830994,150.188583 506.825562,154.512909 
	C517.863892,160.483597 527.541809,168.139511 533.165283,179.770523 
	C535.111145,183.795227 534.356812,188.241898 533.512939,192.915237 
M512.510925,182.808884 
	C510.117828,177.835434 505.119781,175.343506 500.942200,172.924088 
	C488.630890,165.794128 476.526001,158.073715 462.905273,153.454102 
	C456.002747,151.113022 449.659424,147.343613 442.453400,145.753845 
	C433.829010,143.851181 428.763977,145.996490 424.820892,153.886536 
	C422.880737,157.768738 421.784210,161.982330 421.172394,166.278595 
	C419.307068,179.376358 420.078918,192.550644 420.252777,205.696564 
	C420.323395,211.038513 423.970367,214.951828 429.288513,216.036377 
	C431.559967,216.499619 433.902527,216.932327 436.202850,216.885971 
	C457.026306,216.466232 476.973724,212.050735 496.075104,203.700409 
	C502.412811,200.929840 507.947174,197.093918 512.398193,191.890610 
	C514.471619,189.466721 516.796509,186.431534 512.510925,182.808884 
z"/>
<path fill="#000000" opacity="1.000000" stroke="none" 
	d="
M621.161255,195.845886 
	C614.759460,187.429581 609.300781,179.044571 609.652954,168.136932 
	C609.951721,158.886398 614.637024,153.116898 623.524292,150.558945 
	C636.955444,146.693161 648.020020,152.062531 658.960266,158.685898 
	C667.644836,163.943634 674.568909,171.106247 679.778992,179.564423 
	C685.108154,188.215927 688.368896,197.907455 684.237305,208.083527 
	C681.283752,215.358124 674.976013,218.710983 667.281433,219.207642 
	C653.898499,220.071472 642.871033,214.561859 632.664551,206.502457 
	C628.615417,203.305145 624.746643,200.021515 621.161255,195.845886 
M662.911499,187.652954 
	C658.811951,183.115341 654.402832,178.990814 649.515137,175.225082 
	C645.017822,171.760132 640.248474,169.490906 634.849182,168.346863 
	C632.640137,167.878784 629.894104,167.159012 628.574341,169.727112 
	C627.452637,171.909851 628.451233,174.183212 629.762573,176.272141 
	C636.009827,186.224106 645.067566,193.000198 655.075012,198.646454 
	C657.345703,199.927612 659.878113,200.962540 662.645935,200.930237 
	C666.745178,200.882401 668.211121,199.060150 666.913452,195.255646 
	C666.061279,192.757370 665.169006,190.227356 662.911499,187.652954 
z"/>
</svg>